# xmcd CD database file
#
# Track frame offsets:
#	150
#	14995
#	23761
#	39925
#	59696
#	83442
#	95378
#	110985
#	126978
#
# Disc length: 1998 seconds
#
# Revision: 7
# Processed by: cddbd v1.5.2PL0 Copyright (c) Steve Scherf et al.
# Submitted via: CDex 1.70beta2
#
DISCID=7607cc09
DTITLE=B.B. King - How Blue Can You Get [Retro]
DYEAR=1995
DGENRE=Blues
TTITLE0=B.B. Boogie
TTITLE1=A New Way Of Driving
TTITLE2=It's My Own Fault Baby
TTITLE3=How Blue Can You Get
TTITLE4=You Done Lost Your Good Thing Now
TTITLE5=Paying The Cost To Be The Boss
TTITLE6=Walkin' And Cryin'
TTITLE7=The Letter
TTITLE8=Everyday I Have The Blues
EXTD=YEAR: 1995
EXTT0=
EXTT1=
EXTT2=
EXTT3=
EXTT4=
EXTT5=
EXTT6=
EXTT7=
EXTT8=
PLAYORDER=
